<svg width="90" height="90" viewBox="0 0 90 90" fill="none" xmlns="http://www.w3.org/2000/svg">
<rect width="90" height="90" fill="#849167"/>
<path d="M46.5725 86.7568C41.6479 86.7568 36.9952 86.0298 32.7104 84.5852C27.621 82.8739 23.0526 80.4318 19.1355 77.3285C15.2108 74.2233 11.9258 70.5001 9.37248 66.2602C6.82301 62.0354 5.04547 57.4687 4.08966 52.6898C3.13001 47.8958 3.08404 42.9177 3.94983 37.8926C4.81561 32.8601 6.6851 27.9327 9.50464 23.2477C12.2476 18.7054 15.9712 14.7042 20.576 11.3491C25.1865 7.99031 30.3007 5.64967 35.7808 4.38918C42.5137 2.8826 49.3097 2.86194 55.9946 4.32531C62.7064 5.79619 68.7056 8.75674 73.8275 13.1299L73.8562 13.1544C76.5781 15.5758 78.9034 18.14 80.771 20.7793C82.6232 23.398 84.2935 26.3247 85.7378 29.475L86.4829 31.1037L83.1634 32.567L82.4183 30.9384C81.066 27.9872 79.5049 25.2539 77.781 22.8156C76.0743 20.4055 73.9367 18.0479 71.4255 15.8125C66.769 11.8413 61.31 9.14936 55.2035 7.81185C49.0511 6.46495 42.7933 6.48561 36.6026 7.87008C31.6205 9.01598 26.9563 11.1519 22.7481 14.2176C18.5341 17.2871 15.1342 20.939 12.6402 25.068C10.0486 29.3735 8.33239 33.8914 7.5413 38.4919C6.74831 43.0924 6.78853 47.6384 7.66389 52.0079C8.54117 56.3867 10.1712 60.5739 12.51 64.4493C14.8411 68.3191 17.8407 71.7192 21.4245 74.5558C25.0122 77.398 29.207 79.6372 33.8941 81.2133C38.5582 82.7856 43.7242 83.4243 49.2484 83.1162L49.2771 83.1143C52.9969 82.9622 56.644 82.192 60.1186 80.8207C63.6277 79.4381 66.9089 77.5877 69.874 75.3222C72.8372 73.0567 75.4403 70.4287 77.6124 67.5113C79.775 64.6034 81.4644 61.5001 82.629 58.2859L83.2381 56.6046L86.6668 57.8012L86.0577 59.4825C84.7743 63.0198 82.9221 66.4293 80.5526 69.6153C78.1813 72.8013 75.3426 75.6679 72.1112 78.1381C68.8779 80.6084 65.2999 82.6259 61.4766 84.1344C57.6208 85.6541 53.5735 86.5107 49.4438 86.6817C48.4726 86.7305 47.5168 86.7568 46.5725 86.7568Z" fill="white"/>
<path d="M68.3856 64.979H64.7463V30.3653L45.111 44.7717L24.742 30.2977V64.979H21.1027V23.304L45.0765 40.3384L68.3856 23.2382V64.979Z" fill="white"/>
</svg>
