<svg width="81" height="81" viewBox="0 0 81 81" fill="none" xmlns="http://www.w3.org/2000/svg">
<path d="M42.0349 81C37.2601 81 32.749 80.2951 28.5945 78.8945C23.6599 77.2352 19.2305 74.8674 15.4326 71.8585C11.6272 68.8478 8.44216 65.2378 5.96653 61.1269C3.49462 57.0307 1.77116 52.6029 0.844423 47.9693C-0.0860258 43.3212 -0.130598 38.4945 0.708849 33.6223C1.5483 28.7429 3.36091 23.9654 6.09468 19.4229C8.75417 15.0188 12.3645 11.1393 16.8292 7.88627C21.2994 4.62965 26.2581 2.36021 31.5715 1.13807C38.0995 -0.322675 44.6888 -0.34271 51.1704 1.07614C57.6779 2.50228 63.4946 5.37277 68.4608 9.61294L68.4886 9.63662C71.1277 11.9844 73.3823 14.4706 75.193 17.0296C76.9889 19.5686 78.6084 22.4063 80.0087 25.4607L80.7312 27.0399L77.5127 28.4587L76.7902 26.8796C75.4791 24.0182 73.9654 21.3681 72.294 19.004C70.6392 16.6671 68.5666 14.3813 66.1318 12.2139C61.617 8.36347 56.3241 5.75344 50.4034 4.45662C44.4381 3.15069 38.3707 3.17073 32.3683 4.51308C27.5377 5.62412 23.0155 7.69503 18.9352 10.6675C14.8494 13.6436 11.5529 17.1844 9.13489 21.1878C6.62212 25.3624 4.95808 29.7428 4.19107 34.2034C3.42219 38.6639 3.46119 43.0716 4.30993 47.3082C5.16052 51.5538 6.74098 55.6136 9.0086 59.3711C11.2688 63.1232 14.1771 66.4199 17.6519 69.1702C21.1304 71.9259 25.1977 74.097 29.7422 75.6251C34.2644 77.1496 39.2733 77.7689 44.6294 77.4702L44.6572 77.4683C48.2639 77.3208 51.8 76.5741 55.1689 75.2444C58.5713 73.9039 61.7526 72.1099 64.6275 69.9133C67.5006 67.7167 70.0245 65.1686 72.1305 62.34C74.2273 59.5205 75.8653 56.5116 76.9945 53.3952L77.5851 51.7651L80.9095 52.9253L80.3189 54.5554C79.0746 57.9851 77.2787 61.2909 74.9813 64.3799C72.6821 67.469 69.9298 70.2484 66.7967 72.6435C63.6618 75.0386 60.1926 76.9948 56.4856 78.4574C52.7471 79.9308 48.8229 80.7614 44.8188 80.9271C43.8772 80.9745 42.9505 81 42.0349 81Z" fill="white"/>
<path d="M63.1844 59.8848H59.6558V26.3241L40.6178 40.2922L20.8685 26.2585V59.8848H17.3398V19.4775L40.5844 35.9938L63.1844 19.4138V59.8848Z" fill="white"/>
</svg>
