<svg width="211" height="56" viewBox="0 0 211 56" fill="none" xmlns="http://www.w3.org/2000/svg">
<path d="M0 56H211V55.0994H54.8682V0.900611H211V0H0" fill="#849167"/>
<path d="M28.61 53.0246C25.717 53.0246 22.9838 52.5889 20.4667 51.7232C17.477 50.6976 14.7933 49.2342 12.4922 47.3744C10.1866 45.5135 8.25689 43.2822 6.75696 40.7414C5.25929 38.2096 4.21508 35.4728 3.65359 32.6089C3.08985 29.7359 3.06285 26.7527 3.57145 23.7412C4.08005 20.7253 5.17827 17.7724 6.8346 14.9648C8.44592 12.2427 10.6334 9.8448 13.3384 7.83419C16.0468 5.82132 19.0512 4.41862 22.2704 3.66323C26.2256 2.76037 30.2179 2.74799 34.1449 3.62496C38.0877 4.50643 41.6119 6.28063 44.6208 8.90141L44.6377 8.91605C46.2366 10.3672 47.6026 11.9038 48.6997 13.4855C49.7878 15.0548 50.769 16.8088 51.6174 18.6967L52.0552 19.6727L50.1051 20.5497L49.6674 19.5737C48.873 17.8051 47.956 16.1671 46.9433 14.7059C45.9407 13.2615 44.6849 11.8487 43.2098 10.509C40.4743 8.12914 37.2674 6.51592 33.6802 5.71438C30.066 4.9072 26.3899 4.91959 22.7532 5.74927C19.8265 6.43599 17.0865 7.71598 14.6144 9.55323C12.1389 11.3927 10.1416 13.5812 8.6766 16.0556C7.15417 18.6359 6.14596 21.3434 5.68125 24.1004C5.2154 26.8573 5.23903 29.5817 5.75326 32.2002C6.26861 34.8244 7.22618 37.3337 8.60008 39.6562C9.96948 41.9752 11.7316 44.0129 13.8369 45.7128C15.9444 47.416 18.4087 48.758 21.1621 49.7025C23.902 50.6447 26.9368 51.0275 30.1819 50.8429L30.1988 50.8417C32.384 50.7506 34.5264 50.289 36.5676 49.4672C38.629 48.6386 40.5565 47.5298 42.2983 46.1721C44.0391 44.8144 45.5682 43.2395 46.8442 41.4912C48.1146 39.7485 49.1071 37.8887 49.7912 35.9625L50.149 34.955L52.1632 35.6721L51.8054 36.6796C51.0515 38.7995 49.9634 40.8427 48.5715 42.752C47.1784 44.6613 45.5108 46.3792 43.6126 47.8596C41.7132 49.34 39.6113 50.549 37.3653 51.453C35.1003 52.3638 32.7227 52.8771 30.2967 52.9796C29.7262 53.0088 29.1647 53.0246 28.61 53.0246Z" fill="white"/>
<path d="M41.4241 39.9736H39.2861V19.2303L27.7515 27.8638L15.7858 19.1898V39.9736H13.6479V14.9986L27.7312 25.207L41.4241 14.9592V39.9736Z" fill="white"/>
<path d="M112.885 37.0297V45.7071H112.304V37.0297H112.885Z" fill="#849167"/>
<path d="M163.927 37.0297V45.7071H163.347V37.0297H163.927Z" fill="#849167"/>
<path d="M59.0057 42.0719L58.3981 43.9114H57.6172L59.6032 38.0631H60.5135L62.5085 43.9114H61.7018L61.0773 42.0719H59.0057ZM60.9231 41.482L60.3504 39.799C60.2198 39.4174 60.1332 39.0706 60.0465 38.7318H60.0297C59.943 39.0785 59.8474 39.4343 59.7349 39.79L59.1621 41.482H60.9231Z" fill="#849167"/>
<path d="M63.3682 38.1408C63.7497 38.0631 64.2965 38.0192 64.8164 38.0192C65.6232 38.0192 66.143 38.1667 66.5076 38.4965C66.8024 38.7566 66.9678 39.1562 66.9678 39.6077C66.9678 40.3799 66.4817 40.8921 65.8662 41.1004V41.1263C66.3175 41.2828 66.5864 41.6993 66.7248 42.3061C66.9161 43.1223 67.0545 43.6863 67.176 43.9114H66.3951C66.2994 43.7471 66.17 43.2439 66.0046 42.5144C65.8314 41.7072 65.5185 41.4032 64.8333 41.3774H64.1221V43.9114H63.3671V38.1408H63.3682ZM64.1233 40.8043H64.8952C65.702 40.8043 66.2139 40.3619 66.2139 39.6932C66.2139 38.9378 65.6671 38.608 64.8693 38.6001C64.5047 38.6001 64.2448 38.635 64.1233 38.6699V40.8043Z" fill="#849167"/>
<path d="M72.8832 44.7705C72.0944 44.5622 71.3225 44.328 70.6451 44.0939C70.5236 44.05 70.402 44.0072 70.2895 44.0072C68.9021 43.9554 67.7139 42.931 67.7139 41.0487C67.7139 39.1743 68.8593 37.9675 70.4369 37.9675C72.0246 37.9675 73.0564 39.2002 73.0564 40.9271C73.0564 42.4277 72.3622 43.3914 71.3911 43.7302V43.7651C71.9717 43.9126 72.6052 44.0511 73.1003 44.1389L72.8832 44.7705ZM72.2587 40.9609C72.2587 39.7889 71.651 38.5833 70.411 38.5833C69.1361 38.5833 68.5117 39.7631 68.5207 41.0307C68.5117 42.2713 69.1969 43.3914 70.3773 43.3914C71.5824 43.3903 72.2587 42.2972 72.2587 40.9609Z" fill="#849167"/>
<path d="M74.7915 38.0619V41.5248C74.7915 42.8352 75.3721 43.3902 76.153 43.3902C77.0206 43.3902 77.5753 42.8172 77.5753 41.5248V38.0619H78.3382V41.4719C78.3382 43.2686 77.393 44.006 76.126 44.006C74.9288 44.006 74.0275 43.3204 74.0275 41.5068V38.0619H74.7915Z" fill="#849167"/>
<path d="M80.403 38.0619V43.9103H79.648V38.0619H80.403Z" fill="#849167"/>
<path d="M82.8312 38.7048H81.0534V38.0631H85.381V38.7048H83.5941V43.9114H82.8312V38.7048Z" fill="#849167"/>
<path d="M89.0594 41.1691H86.7864V43.2776H89.3193V43.9114H86.0325V38.0631H89.1899V38.6969H86.7875V40.5454H89.0605V41.1691H89.0594Z" fill="#849167"/>
<path d="M91.5484 38.7048H89.7705V38.0631H94.0981V38.7048H92.3113V43.9114H91.5484V38.7048Z" fill="#849167"/>
<path d="M95.5035 38.0619V41.5248C95.5035 42.8352 96.0841 43.3902 96.8651 43.3902C97.7326 43.3902 98.2873 42.8172 98.2873 41.5248V38.0619H99.0502V41.4719C99.0502 43.2686 98.1051 44.006 96.838 44.006C95.6408 44.006 94.7395 43.3204 94.7395 41.5068V38.0619H95.5035Z" fill="#849167"/>
<path d="M100.361 38.1408C100.743 38.0631 101.289 38.0192 101.809 38.0192C102.616 38.0192 103.136 38.1667 103.501 38.4965C103.795 38.7566 103.961 39.1562 103.961 39.6077C103.961 40.3799 103.475 40.8921 102.859 41.1004V41.1263C103.31 41.2828 103.579 41.6993 103.718 42.3061C103.909 43.1223 104.047 43.6863 104.169 43.9114H103.388C103.292 43.7471 103.163 43.2439 102.998 42.5144C102.824 41.7072 102.511 41.4032 101.826 41.3774H101.115V43.9114H100.36V38.1408H100.361ZM101.115 40.8043H101.887C102.694 40.8043 103.206 40.3619 103.206 39.6932C103.206 38.9378 102.659 38.608 101.861 38.6001C101.496 38.6001 101.237 38.635 101.115 38.6699V40.8043Z" fill="#849167"/>
<path d="M106.015 42.0719L105.408 43.9114H104.627L106.613 38.0631H107.523L109.518 43.9114H108.711L108.087 42.0719H106.015ZM107.933 41.482L107.36 39.799C107.23 39.4174 107.143 39.0706 107.056 38.7318H107.039C106.953 39.0785 106.857 39.4343 106.745 39.79L106.172 41.482H107.933Z" fill="#849167"/>
<path d="M116.883 38.0619V41.5248C116.883 42.8352 117.463 43.3902 118.244 43.3902C119.112 43.3902 119.667 42.8172 119.667 41.5248V38.0619H120.43V41.4719C120.43 43.2686 119.484 44.006 118.217 44.006C117.02 44.006 116.119 43.3204 116.119 41.5068V38.0619H116.883Z" fill="#849167"/>
<path d="M121.74 38.1408C122.122 38.0631 122.669 38.0192 123.189 38.0192C123.995 38.0192 124.515 38.1667 124.88 38.4965C125.175 38.7566 125.34 39.1562 125.34 39.6077C125.34 40.3799 124.854 40.8921 124.238 41.1004V41.1263C124.69 41.2828 124.959 41.6993 125.097 42.3061C125.288 43.1223 125.427 43.6863 125.548 43.9114H124.767C124.672 43.7471 124.542 43.2439 124.377 42.5144C124.204 41.7072 123.891 41.4032 123.205 41.3774H122.494V43.9114H121.739V38.1408H121.74ZM122.495 40.8043H123.267C124.074 40.8043 124.586 40.3619 124.586 39.6932C124.586 38.9378 124.039 38.608 123.241 38.6001C122.877 38.6001 122.617 38.635 122.495 38.6699V40.8043Z" fill="#849167"/>
<path d="M126.407 38.1408C126.736 38.071 127.256 38.0192 127.786 38.0192C128.541 38.0192 129.026 38.1498 129.391 38.4447C129.695 38.6699 129.877 39.0178 129.877 39.4771C129.877 40.0411 129.503 40.5353 128.888 40.7616V40.7796C129.443 40.918 130.093 41.3785 130.093 42.2464C130.093 42.7497 129.894 43.1313 129.599 43.4184C129.192 43.7921 128.532 43.9655 127.578 43.9655C127.058 43.9655 126.659 43.9306 126.407 43.8957V38.1408ZM127.162 40.5353H127.847C128.645 40.5353 129.113 40.1188 129.113 39.5547C129.113 38.8692 128.592 38.6001 127.829 38.6001C127.482 38.6001 127.282 38.626 127.161 38.6519V40.5353H127.162ZM127.162 43.3384C127.309 43.3643 127.526 43.3733 127.795 43.3733C128.576 43.3733 129.296 43.0874 129.296 42.2363C129.296 41.4381 128.611 41.1083 127.787 41.1083H127.163V43.3384H127.162Z" fill="#849167"/>
<path d="M132.053 42.0719L131.445 43.9114H130.665L132.651 38.0631H133.561L135.556 43.9114H134.749L134.125 42.0719H132.053ZM133.969 41.482L133.397 39.799C133.266 39.4174 133.179 39.0706 133.093 38.7318H133.076C132.989 39.0785 132.894 39.4343 132.781 39.79L132.208 41.482H133.969Z" fill="#849167"/>
<path d="M136.416 43.9114V38.0631H137.239L139.113 41.0227C139.546 41.7083 139.885 42.3241 140.163 42.923L140.181 42.914C140.111 42.1327 140.094 41.4212 140.094 40.5105V38.0631H140.805V43.9114H140.042L138.186 40.9439C137.778 40.2932 137.388 39.6245 137.093 38.9918L137.067 39.0008C137.111 39.7382 137.128 40.4418 137.128 41.4134V43.9125H136.416V43.9114Z" fill="#849167"/>
<path d="M142.878 38.0619V43.9103H142.123V38.0619H142.878Z" fill="#849167"/>
<path d="M144.092 42.9917C144.431 43.2 144.925 43.3734 145.446 43.3734C146.217 43.3734 146.669 42.9659 146.669 42.376C146.669 41.8288 146.357 41.517 145.567 41.213C144.613 40.8742 144.023 40.38 144.023 39.5559C144.023 38.6452 144.778 37.9675 145.914 37.9675C146.512 37.9675 146.945 38.1059 147.205 38.2534L146.997 38.8692C146.806 38.7645 146.417 38.5911 145.887 38.5911C145.089 38.5911 144.785 39.0685 144.785 39.4681C144.785 40.0152 145.141 40.2843 145.947 40.5961C146.936 40.9778 147.439 41.4551 147.439 42.314C147.439 43.2169 146.772 43.9971 145.393 43.9971C144.829 43.9971 144.213 43.8327 143.901 43.6244L144.092 42.9917Z" fill="#849167"/>
<path d="M153.399 41.3424C153.355 40.5262 153.303 39.5457 153.312 38.8173H153.286C153.087 39.5029 152.844 40.2313 152.549 41.0385L151.517 43.8765H150.945L149.999 41.0914C149.721 40.2673 149.487 39.5119 149.323 38.8173H149.306C149.289 39.5468 149.245 40.5274 149.194 41.4032L149.037 43.9114H148.317L148.724 38.0631H149.688L150.685 40.8921C150.928 41.6126 151.127 42.2543 151.274 42.8622H151.3C151.447 42.2723 151.656 41.6306 151.916 40.8921L152.956 38.0631H153.92L154.284 43.9114H153.547L153.399 41.3424Z" fill="#849167"/>
<path d="M160.441 40.926C160.441 42.9388 159.218 44.006 157.726 44.006C156.182 44.006 155.098 42.8082 155.098 41.0385C155.098 39.181 156.251 37.9663 157.813 37.9663C159.41 37.9674 160.441 39.1912 160.441 40.926ZM155.904 41.0216C155.904 42.2712 156.581 43.3903 157.769 43.3903C158.966 43.3903 159.643 42.2881 159.643 40.9609C159.643 39.7979 159.035 38.5832 157.778 38.5832C156.529 38.5832 155.904 39.7372 155.904 41.0216Z" fill="#849167"/>
<path d="M167.926 38.0619V43.9103H167.171V38.0619H167.926Z" fill="#849167"/>
<path d="M169.245 43.9114V38.0631H170.069L171.942 41.0227C172.376 41.7083 172.714 42.3241 172.992 42.923L173.01 42.914C172.94 42.1327 172.924 41.4212 172.924 40.5105V38.0631H173.635V43.9114H172.872L171.015 40.9439C170.608 40.2932 170.217 39.6245 169.923 38.9918L169.897 39.0008C169.941 39.7382 169.957 40.4418 169.957 41.4134V43.9125H169.245V43.9114Z" fill="#849167"/>
<path d="M176.062 38.7048H174.284V38.0631H178.612V38.7048H176.825V43.9114H176.062V38.7048Z" fill="#849167"/>
<path d="M182.29 41.1691H180.017V43.2776H182.55V43.9114H179.263V38.0631H182.42V38.6969H180.018V40.5454H182.291V41.1691H182.29Z" fill="#849167"/>
<path d="M183.53 38.1408C183.911 38.0631 184.458 38.0192 184.978 38.0192C185.785 38.0192 186.305 38.1667 186.669 38.4965C186.964 38.7566 187.129 39.1562 187.129 39.6077C187.129 40.3799 186.643 40.8921 186.028 41.1004V41.1263C186.479 41.2828 186.748 41.6993 186.886 42.3061C187.078 43.1223 187.216 43.6863 187.338 43.9114H186.557C186.461 43.7471 186.332 43.2439 186.166 42.5144C185.993 41.7072 185.68 41.4032 184.995 41.3774H184.284V43.9114H183.529V38.1408H183.53ZM184.284 40.8043H185.056C185.863 40.8043 186.374 40.3619 186.374 39.6932C186.374 38.9378 185.828 38.608 185.03 38.6001C184.665 38.6001 184.405 38.635 184.284 38.6699V40.8043Z" fill="#849167"/>
<path d="M188.95 38.0619V43.9103H188.195V38.0619H188.95Z" fill="#849167"/>
<path d="M195.265 40.926C195.265 42.9388 194.042 44.006 192.55 44.006C191.006 44.006 189.921 42.8082 189.921 41.0385C189.921 39.181 191.075 37.9663 192.636 37.9663C194.233 37.9674 195.265 39.1912 195.265 40.926ZM190.729 41.0216C190.729 42.2712 191.405 43.3903 192.594 43.3903C193.791 43.3903 194.467 42.2881 194.467 40.9609C194.467 39.7979 193.859 38.5832 192.603 38.5832C191.354 38.5832 190.729 39.7372 190.729 41.0216Z" fill="#849167"/>
<path d="M196.245 38.1408C196.626 38.0631 197.173 38.0192 197.693 38.0192C198.5 38.0192 199.02 38.1667 199.384 38.4965C199.679 38.7566 199.845 39.1562 199.845 39.6077C199.845 40.3799 199.358 40.8921 198.743 41.1004V41.1263C199.194 41.2828 199.463 41.6993 199.602 42.3061C199.793 43.1223 199.931 43.6863 200.053 43.9114H199.272C199.176 43.7471 199.047 43.2439 198.881 42.5144C198.708 41.7072 198.395 41.4032 197.71 41.3774H196.999V43.9114H196.244V38.1408H196.245ZM196.999 40.8043H197.771C198.578 40.8043 199.09 40.3619 199.09 39.6932C199.09 38.9378 198.543 38.608 197.745 38.6001C197.38 38.6001 197.12 38.635 196.999 38.6699V40.8043Z" fill="#849167"/>
<path d="M203.938 41.1691H201.665V43.2776H204.198V43.9114H200.911V38.0631H204.069V38.6969H201.666V40.5454H203.939V41.1691H203.938Z" fill="#849167"/>
<path d="M205.075 42.9917C205.413 43.2 205.907 43.3734 206.427 43.3734C207.199 43.3734 207.65 42.9659 207.65 42.376C207.65 41.8288 207.339 41.517 206.549 41.213C205.594 40.8742 205.005 40.38 205.005 39.5559C205.005 38.6452 205.76 37.9675 206.895 37.9675C207.494 37.9675 207.927 38.1059 208.187 38.2534L207.979 38.8692C207.788 38.7645 207.398 38.5911 206.868 38.5911C206.07 38.5911 205.767 39.0685 205.767 39.4681C205.767 40.0152 206.122 40.2843 206.929 40.5961C207.918 40.9778 208.421 41.4551 208.421 42.314C208.421 43.2169 207.754 43.9971 206.374 43.9971C205.811 43.9971 205.195 43.8327 204.882 43.6244L205.075 42.9917Z" fill="#849167"/>
<path d="M72.0246 16.4677L70.9207 17.5597C70.312 16.5375 69.5806 15.7618 68.7277 15.2338C67.8747 14.7059 66.9374 14.4424 65.9169 14.4424C64.8006 14.4424 63.7665 14.788 62.8157 15.4793C61.8649 16.1705 61.1268 17.0992 60.6035 18.2655C60.0803 19.4318 59.8193 20.7422 59.8193 22.1989C59.8193 24.3998 60.4044 26.2371 61.5746 27.7096C62.7448 29.1821 64.2211 29.9183 66.0024 29.9183C67.9625 29.9183 69.6008 28.9288 70.9207 26.9485L72.0246 28.0281C71.3269 29.1742 70.456 30.059 69.4129 30.6849C68.3698 31.3109 67.2041 31.6238 65.9169 31.6238C63.4684 31.6238 61.5375 30.5724 60.1231 28.4694C58.9371 26.6941 58.3441 24.5507 58.3441 22.038C58.3441 19.3958 59.062 17.1724 60.4989 15.3678C61.9358 13.5632 63.735 12.6615 65.8977 12.6615C67.2041 12.6615 68.3833 12.9947 69.4366 13.6611C70.4898 14.3299 71.3517 15.2654 72.0246 16.4677Z" fill="#849167"/>
<path d="M65.9168 31.6802C63.4605 31.6802 61.4958 30.6107 60.0769 28.501C58.8898 26.7245 58.2889 24.5507 58.2889 22.0391C58.2889 19.3958 59.0181 17.1398 60.4561 15.3341C61.8964 13.5238 63.7283 12.6063 65.8988 12.6063C67.2097 12.6063 68.4103 12.9452 69.4681 13.615C70.5235 14.2837 71.4012 15.2339 72.0741 16.4396L72.0955 16.4767L70.9106 17.6498L70.8735 17.5878C70.2726 16.578 69.5412 15.8013 68.6995 15.2812C67.8601 14.7611 66.9239 14.4976 65.918 14.4976C64.8197 14.4976 63.7868 14.8432 62.8495 15.5243C61.911 16.2065 61.1729 17.1364 60.6564 18.2881C60.1388 19.4409 59.8766 20.7569 59.8766 22.199C59.8766 24.3762 60.4629 26.2191 61.6196 27.6747C62.773 29.1269 64.2481 29.8621 66.0035 29.8621C67.9344 29.8621 69.5727 28.8714 70.8746 26.9171L70.9128 26.8608L72.0966 28.0192L72.073 28.0575C71.3742 29.2057 70.4886 30.1052 69.4422 30.7334C68.3946 31.3627 67.2086 31.6802 65.9168 31.6802ZM65.8977 12.7189C63.7632 12.7189 61.9617 13.6218 60.5428 15.4039C59.1216 17.1893 58.4003 19.4217 58.4003 22.0391C58.4003 24.5282 58.9956 26.6818 60.1692 28.4391C61.5656 30.515 63.4987 31.5687 65.9157 31.5687C67.1872 31.5687 68.353 31.2557 69.3825 30.6377C70.402 30.0264 71.265 29.1517 71.9514 28.0383L70.9286 27.0364C69.611 28.9862 67.9535 29.9746 66.0012 29.9746C64.2099 29.9746 62.7043 29.2249 61.5285 27.7445C60.356 26.2686 59.7607 24.4021 59.7607 22.199C59.7607 20.7411 60.0263 19.4105 60.5506 18.243C61.075 17.0734 61.8255 16.1289 62.7808 15.4343C63.7373 14.7385 64.7916 14.3862 65.9146 14.3862C66.9419 14.3862 67.8972 14.6552 68.7547 15.1866C69.5941 15.7056 70.3255 16.4733 70.9286 17.4696L71.9503 16.4576C71.2887 15.2868 70.4324 14.3625 69.4028 13.7107C68.3676 13.0533 67.1872 12.7189 65.8977 12.7189Z" fill="#849167"/>
<path d="M80.5481 13.1175L87.0733 31.1702H85.5633L83.3623 25.2307H77.3345L75.1549 31.1702H73.5954L80.2072 13.1175H80.5481ZM80.3715 16.9529L77.9736 23.488H82.7581L80.3715 16.9529Z" fill="#849167"/>
<path d="M87.1532 31.2263H85.5239L83.3229 25.2867H77.3728L75.1932 31.2263H73.5132L80.1656 13.0609H80.5864L80.5999 13.0981L87.1532 31.2263ZM85.6027 31.1137H86.9934L80.5088 13.1735H80.2455L73.6753 31.1137H75.1155L77.2951 25.1742H83.4017L85.6027 31.1137ZM82.838 23.544H77.8926L77.9207 23.4686L80.3715 16.7895L82.838 23.544ZM78.0535 23.4315H82.6759L80.3704 17.1171L78.0535 23.4315Z" fill="#849167"/>
<path d="M89.3182 13.1175H92.1054C93.6593 13.1175 94.7114 13.1996 95.2639 13.3629C96.0943 13.6083 96.7705 14.1351 97.2904 14.9423C97.8102 15.7495 98.0702 16.7424 98.0702 17.9222C98.0702 18.905 97.8913 19.7696 97.5323 20.5149C97.1734 21.2601 96.6614 21.8241 95.9964 22.2046C95.3302 22.5851 94.4109 22.7799 93.2373 22.7889L98.2693 31.1713H96.5399L91.5067 22.7889H90.7157V31.1713H89.317V13.1175H89.3182ZM90.7168 14.8849V21.0214L93.1271 21.0462C94.061 21.0462 94.7519 20.9314 95.1997 20.7029C95.6476 20.4743 95.9975 20.1073 96.2484 19.6041C96.4994 19.1009 96.6243 18.538 96.6243 17.9166C96.6243 17.3109 96.4971 16.7616 96.2428 16.2662C95.9885 15.7709 95.6554 15.4174 95.2425 15.2046C94.8295 14.9919 94.1431 14.8849 93.1844 14.8849H90.7168Z" fill="#849167"/>
<path d="M98.3694 31.2263H96.5083L91.4752 22.8438H90.773V31.2263H89.2619V13.0609H92.1053C93.657 13.0609 94.7248 13.1442 95.2796 13.3097C96.1201 13.5585 96.8121 14.0978 97.3376 14.9117C97.8608 15.7245 98.1264 16.7366 98.1264 17.922C98.1264 18.9093 97.9441 19.7896 97.5829 20.5394C97.2206 21.2914 96.6962 21.8689 96.0234 22.2528C95.3707 22.6265 94.4672 22.8247 93.3352 22.8427L98.3694 31.2263ZM96.5725 31.1137H98.1714L93.1394 22.7324L93.2384 22.7312C94.3963 22.7234 95.3145 22.5297 95.9693 22.1549C96.622 21.7822 97.1317 21.2216 97.4828 20.4899C97.8361 19.7559 98.015 18.8913 98.015 17.922C98.015 16.7591 97.7551 15.7661 97.2442 14.9725C96.7345 14.1811 96.0627 13.6576 95.2492 13.4167C94.7046 13.2546 93.648 13.1735 92.1076 13.1735H89.3766V31.1137H90.6628V22.7312H91.5416L91.5585 22.7583L96.5725 31.1137ZM93.127 21.1011L90.6605 21.0764V14.8284H93.1844C94.1476 14.8284 94.8486 14.9376 95.2683 15.1537C95.6903 15.371 96.0346 15.7369 96.2934 16.2401C96.55 16.7411 96.6805 17.3051 96.6805 17.9164C96.6805 18.5445 96.5522 19.1198 96.2979 19.6286C96.0425 20.1409 95.6813 20.5191 95.2244 20.7522C94.7721 20.9841 94.0655 21.1011 93.127 21.1011ZM90.773 20.9649L93.1281 20.9886C94.0475 20.9886 94.7361 20.8749 95.1738 20.6508C95.6081 20.4291 95.9525 20.0677 96.1978 19.5769C96.4431 19.0838 96.568 18.5243 96.568 17.9141C96.568 17.3208 96.4419 16.7737 96.1933 16.2896C95.9457 15.8078 95.6171 15.4588 95.2166 15.2528C94.8137 15.0457 94.1296 14.9398 93.1844 14.9398H90.773V20.9649Z" fill="#849167"/>
<path d="M107.73 12.6626C109.85 12.6626 111.624 13.5744 113.051 15.3993C114.479 17.2242 115.194 19.4701 115.194 22.137C115.194 24.7803 114.482 27.0217 113.057 28.8623C111.633 30.7029 109.895 31.6238 107.846 31.6238C105.771 31.6238 104.019 30.7074 102.591 28.8747C101.163 27.0419 100.45 24.8242 100.45 22.2225C100.45 20.4877 100.775 18.8802 101.426 17.3998C102.076 15.9194 102.963 14.7587 104.086 13.92C105.208 13.0825 106.423 12.6626 107.73 12.6626ZM107.792 14.4176C106.757 14.4176 105.776 14.7655 104.847 15.4623C103.92 16.1581 103.196 17.0958 102.675 18.2745C102.154 19.4532 101.894 20.7681 101.894 22.2169C101.894 24.3626 102.47 26.174 103.623 27.6521C104.777 29.1302 106.165 29.8687 107.792 29.8687C108.878 29.8687 109.884 29.5288 110.808 28.8488C111.732 28.1688 112.453 27.2401 112.97 26.0614C113.488 24.8827 113.747 23.5723 113.747 22.1302C113.747 20.6971 113.488 19.4014 112.97 18.243C112.453 17.0846 111.724 16.1569 110.784 15.4612C109.845 14.7666 108.846 14.4176 107.792 14.4176Z" fill="#849167"/>
<path d="M107.845 31.6802C105.761 31.6802 103.979 30.748 102.546 28.9096C101.117 27.0758 100.393 24.8254 100.393 22.2237C100.393 20.4889 100.722 18.8588 101.373 17.3784C102.024 15.8958 102.925 14.7171 104.051 13.8762C105.179 13.0341 106.417 12.6075 107.73 12.6075C109.858 12.6075 111.663 13.5351 113.095 15.3656C114.524 17.1916 115.249 19.4701 115.249 22.1382C115.249 24.7815 114.527 27.0555 113.1 28.8984C111.672 30.7446 109.903 31.6802 107.845 31.6802ZM107.73 12.7189C106.442 12.7189 105.227 13.1388 104.118 13.9651C103.009 14.7937 102.119 15.9566 101.475 17.4224C100.83 18.8892 100.504 20.5047 100.504 22.2226C100.504 24.7995 101.221 27.0262 102.634 28.8398C104.044 30.6501 105.797 31.5676 107.844 31.5676C109.866 31.5676 111.604 30.6456 113.011 28.8286C114.421 27.006 115.136 24.7556 115.136 22.1371C115.136 19.4949 114.42 17.24 113.006 15.4343C111.598 13.633 109.822 12.7189 107.73 12.7189ZM107.792 29.9262C106.155 29.9262 104.737 29.1731 103.579 27.6882C102.424 26.2067 101.839 24.3672 101.839 22.2181C101.839 20.7681 102.103 19.433 102.625 18.2532C103.147 17.0711 103.884 16.1176 104.815 15.4185C105.748 14.7183 106.75 14.3625 107.793 14.3625C108.855 14.3625 109.873 14.7171 110.819 15.4174C111.763 16.1165 112.505 17.0599 113.023 18.2216C113.542 19.3823 113.805 20.6972 113.805 22.1314C113.805 23.5735 113.542 24.9042 113.024 26.0851C112.506 27.2672 111.772 28.2128 110.844 28.8961C109.912 29.5795 108.886 29.9262 107.792 29.9262ZM107.792 14.474C106.774 14.474 105.795 14.8218 104.881 15.5063C103.966 16.193 103.241 17.1319 102.726 18.2971C102.211 19.4634 101.95 20.7828 101.95 22.217C101.95 24.339 102.527 26.1572 103.667 27.6173C104.803 29.074 106.191 29.8125 107.791 29.8125C108.86 29.8125 109.864 29.4737 110.773 28.8038C111.684 28.1329 112.407 27.203 112.917 26.0389C113.429 24.8727 113.689 23.5578 113.689 22.1314C113.689 20.713 113.429 19.4127 112.917 18.2667C112.407 17.1229 111.676 16.1941 110.749 15.5074C109.824 14.8218 108.83 14.474 107.792 14.474Z" fill="#849167"/>
<path d="M117.999 13.1175H119.398V29.4275H124.782V31.1702H117.999V13.1175Z" fill="#849167"/>
<path d="M124.838 31.2263H117.943V13.0609H119.454V29.371H124.838V31.2263ZM118.055 31.1137H124.726V29.4836H119.341V13.1735H118.055V31.1137Z" fill="#849167"/>
<path d="M126.362 31.1702L128.365 13.1175H128.592L134.281 27.9303L139.915 13.1175H140.139L142.153 31.1702H140.781L139.399 18.2588L134.451 31.1702H134.093L129.086 18.1609L127.711 31.1702H126.362Z" fill="#849167"/>
<path d="M142.215 31.2263H140.73L139.367 18.4972L134.489 31.2263H134.055L134.041 31.1902L129.118 18.3993L127.764 31.2263H126.3L128.316 13.0609H128.632L128.646 13.097L134.282 27.7724L139.878 13.0609H140.191L140.196 13.1105L142.215 31.2263ZM140.832 31.1137H142.09L140.088 13.1735H139.953L134.281 28.0876L128.554 13.1735H128.415L126.425 31.1137H127.662L129.057 17.9231L134.134 31.1137H134.414L139.431 18.021L140.832 31.1137Z" fill="#849167"/>
<path d="M150.618 13.1175L157.144 31.1702H155.634L153.433 25.2307H147.406L145.226 31.1702H143.667L150.278 13.1175H150.618ZM150.443 16.9529L148.045 23.488H152.829L150.443 16.9529Z" fill="#849167"/>
<path d="M157.224 31.2263H155.595L153.394 25.2867H147.444L145.264 31.2263H143.584L150.237 13.0609H150.658L150.671 13.0981L157.224 31.2263ZM155.673 31.1137H157.063L150.579 13.1735H150.315L143.745 31.1137H145.186L147.365 25.1742H153.472L155.673 31.1137ZM152.909 23.544H147.964L147.992 23.4686L150.443 16.7895L152.909 23.544ZM148.125 23.4315H152.747L150.442 17.1171L148.125 23.4315Z" fill="#849167"/>
<path d="M172.346 16.4677L171.242 17.5597C170.634 16.5375 169.902 15.7618 169.049 15.2339C168.196 14.7059 167.259 14.4425 166.239 14.4425C165.122 14.4425 164.088 14.7881 163.137 15.4793C162.187 16.1705 161.448 17.0993 160.925 18.2655C160.402 19.4318 160.141 20.7422 160.141 22.199C160.141 24.3998 160.726 26.2371 161.896 27.7096C163.066 29.1821 164.543 29.9183 166.324 29.9183C168.284 29.9183 169.922 28.9288 171.242 26.9486L172.346 28.0282C171.649 29.1742 170.778 30.059 169.735 30.685C168.691 31.3109 167.526 31.6239 166.239 31.6239C163.79 31.6239 161.859 30.5724 160.445 28.4695C159.259 26.6941 158.666 24.5507 158.666 22.038C158.666 19.3958 159.384 17.1724 160.821 15.3678C162.257 13.5632 164.057 12.6615 166.219 12.6615C167.526 12.6615 168.705 12.9947 169.758 13.6612C170.811 14.3299 171.673 15.2654 172.346 16.4677Z" fill="#849167"/>
<path d="M166.239 31.6802C163.782 31.6802 161.818 30.6107 160.399 28.501C159.211 26.7246 158.611 24.5507 158.611 22.0391C158.611 19.3958 159.34 17.1398 160.778 15.3341C162.218 13.5239 164.05 12.6064 166.221 12.6064C167.531 12.6064 168.732 12.9452 169.79 13.615C170.845 14.2837 171.723 15.2339 172.396 16.4396L172.417 16.4767L171.232 17.6498L171.195 17.5879C170.594 16.5781 169.863 15.8013 169.021 15.2812C168.181 14.7611 167.246 14.4976 166.24 14.4976C165.141 14.4976 164.108 14.8433 163.171 15.5243C162.233 16.2066 161.495 17.1364 160.978 18.2881C160.461 19.4409 160.198 20.7569 160.198 22.199C160.198 24.3762 160.785 26.2191 161.941 27.6747C163.095 29.1269 164.57 29.8621 166.325 29.8621C168.256 29.8621 169.894 28.8714 171.196 26.9171L171.233 26.8608L172.417 28.0192L172.394 28.0575C171.695 29.2058 170.809 30.1052 169.763 30.7334C168.716 31.3627 167.53 31.6802 166.239 31.6802ZM166.219 12.7189C164.085 12.7189 162.283 13.6218 160.864 15.4039C159.443 17.1893 158.722 19.4217 158.722 22.0391C158.722 24.5282 159.317 26.6818 160.492 28.4391C161.888 30.515 163.822 31.5687 166.239 31.5687C167.51 31.5687 168.676 31.2558 169.705 30.6377C170.724 30.0264 171.588 29.1517 172.274 28.0383L171.251 27.0364C169.934 28.9862 168.276 29.9746 166.324 29.9746C164.533 29.9746 163.027 29.2249 161.852 27.7445C160.68 26.2686 160.085 24.4021 160.085 22.199C160.085 20.7411 160.35 19.4105 160.875 18.2431C161.399 17.0734 162.149 16.1289 163.105 15.4343C164.061 14.7386 165.116 14.3862 166.239 14.3862C167.266 14.3862 168.221 14.6553 169.079 15.1866C169.918 15.7056 170.649 16.4734 171.254 17.4697L172.275 16.4576C171.614 15.2868 170.757 14.3626 169.728 13.7107C168.689 13.0533 167.509 12.7189 166.219 12.7189Z" fill="#849167"/>
<path d="M181.816 12.6626C183.936 12.6626 185.709 13.5744 187.137 15.3993C188.565 17.2242 189.28 19.4701 189.28 22.137C189.28 24.7803 188.567 27.0217 187.143 28.8623C185.718 30.7029 183.981 31.6238 181.931 31.6238C179.856 31.6238 178.104 30.7074 176.676 28.8747C175.248 27.0419 174.535 24.8242 174.535 22.2225C174.535 20.4877 174.86 18.8802 175.51 17.3998C176.161 15.9194 177.047 14.7587 178.17 13.92C179.293 13.0825 180.509 12.6626 181.816 12.6626ZM181.878 14.4176C180.843 14.4176 179.862 14.7655 178.934 15.4623C178.007 16.1581 177.283 17.0958 176.762 18.2745C176.241 19.4532 175.981 20.7681 175.981 22.2169C175.981 24.3626 176.557 26.174 177.71 27.6521C178.864 29.1302 180.253 29.8687 181.879 29.8687C182.965 29.8687 183.971 29.5288 184.895 28.8488C185.819 28.1688 186.54 27.2401 187.057 26.0614C187.575 24.8827 187.834 23.5723 187.834 22.1302C187.834 20.6971 187.575 19.4014 187.057 18.243C186.54 17.0846 185.811 16.1569 184.871 15.4612C183.929 14.7666 182.932 14.4176 181.878 14.4176Z" fill="#849167"/>
<path d="M181.93 31.6802C179.846 31.6802 178.064 30.748 176.631 28.9096C175.202 27.0758 174.477 24.8254 174.477 22.2237C174.477 20.4901 174.807 18.8588 175.458 17.3784C176.109 15.8958 177.01 14.7171 178.136 13.8762C179.264 13.0341 180.502 12.6075 181.815 12.6075C183.943 12.6075 185.748 13.5351 187.18 15.3656C188.609 17.1916 189.334 19.4701 189.334 22.1382C189.334 24.7815 188.611 27.0555 187.185 28.8984C185.757 30.7446 183.988 31.6802 181.93 31.6802ZM181.816 12.7189C180.528 12.7189 179.313 13.1388 178.204 13.9651C177.094 14.7937 176.205 15.9577 175.562 17.4224C174.917 18.8892 174.591 20.5047 174.591 22.2226C174.591 24.7995 175.308 27.0262 176.721 28.8398C178.131 30.6501 179.884 31.5676 181.931 31.5676C183.953 31.5676 185.691 30.6456 187.098 28.8286C188.508 27.006 189.224 24.7556 189.224 22.1371C189.224 19.4949 188.507 17.24 187.093 15.4343C185.682 13.633 183.907 12.7189 181.816 12.7189ZM181.878 29.9262C180.241 29.9262 178.824 29.1731 177.665 27.6882C176.51 26.2067 175.924 24.3672 175.924 22.2181C175.924 20.767 176.189 19.433 176.711 18.2532C177.233 17.0711 177.97 16.1176 178.901 15.4185C179.834 14.7183 180.836 14.3625 181.878 14.3625C182.94 14.3625 183.957 14.7171 184.904 15.4174C185.848 16.1165 186.589 17.0599 187.108 18.2216C187.627 19.3823 187.89 20.6983 187.89 22.1314C187.89 23.5735 187.627 24.9031 187.109 26.0851C186.589 27.2683 185.856 28.2139 184.929 28.8961C183.997 29.5795 182.971 29.9262 181.878 29.9262ZM181.878 14.474C180.86 14.474 179.881 14.8218 178.967 15.5063C178.052 16.193 177.327 17.1319 176.812 18.2971C176.297 19.4634 176.036 20.7816 176.036 22.217C176.036 24.3402 176.613 26.1572 177.753 27.6173C178.889 29.074 180.277 29.8125 181.877 29.8125C182.946 29.8125 183.95 29.4737 184.859 28.8038C185.77 28.1329 186.493 27.203 187.003 26.0389C187.515 24.8727 187.775 23.5578 187.775 22.1314C187.775 20.713 187.515 19.4127 187.003 18.2667C186.493 17.1229 185.762 16.1941 184.835 15.5074C183.91 14.8218 182.914 14.474 181.878 14.474Z" fill="#849167"/>
<path d="M192.094 31.1702V13.1175H192.398L201.711 26.9565V13.1175H203.091V31.1702H202.777L193.54 17.5001V31.1702H192.094Z" fill="#849167"/>
<path d="M203.147 31.2263H202.748L193.597 17.6833V31.2263H192.039V13.0609H192.429L192.446 13.0857L201.656 26.7716V13.0609H203.148V31.2263H203.147ZM202.807 31.1137H203.035V13.1735H201.768V27.1397L192.369 13.1735H192.15V31.1137H193.484V17.3163L202.807 31.1137Z" fill="#849167"/>
<path d="M206.297 13.1175H207.695V31.1702H206.297V13.1175Z" fill="#849167"/>
<path d="M207.751 31.2263H206.24V13.0609H207.751V31.2263ZM206.353 31.1137H207.639V13.1735H206.353V31.1137Z" fill="#849167"/>
</svg>
